<?xml version="1.0" encoding="iso-8859-1"?>
<!-- Generator: Adobe Illustrator 19.0.0, SVG Export Plug-In . SVG Version: 6.00 Build 0)  -->
<svg version="1.1" id="Capa_1" xmlns="http://www.w3.org/2000/svg" xmlns:xlink="http://www.w3.org/1999/xlink" x="0px" y="0px"
	 viewBox="0 0 512 512" style="enable-background:new 0 0 512 512;" xml:space="preserve">
<circle style="fill:#FFE17D;" cx="255.999" cy="256" r="248.499"/>
<path style="fill:#FFD164;" d="M292.073,468.427c-137.242,0-248.499-111.257-248.499-248.499c0-59.433,20.891-113.97,55.695-156.732
	C43.284,108.761,7.501,178.191,7.501,256.001c0,137.241,111.256,248.499,248.499,248.499c77.81,0,147.241-35.784,192.805-91.768
	C406.044,447.536,351.505,468.427,292.073,468.427z"/>
<path style="fill:#9C6846;" d="M255.943,369.331c20.213,0,39.604,1.943,57.636,5.495c5.698,1.123,10.098-4.704,7.865-10.066
	c-10.927-26.245-36.118-44.632-65.501-44.632s-54.575,18.386-65.501,44.632c-2.232,5.362,2.167,11.189,7.865,10.066
	C216.338,371.274,235.73,369.331,255.943,369.331z"/>
<g>
	<path style="fill:#7D5046;" d="M255.942,344.177c24.24,0,46.414,6.313,63.78,16.762c-11.702-24.19-35.845-40.809-63.779-40.809
		s-52.078,16.619-63.78,40.809C209.528,350.49,231.702,344.177,255.942,344.177z"/>
	<path style="fill:#7D5046;" d="M340.168,280.049L340.168,280.049c-11.068,0-20.04-8.972-20.04-20.04v-16.032
		c0-11.068,8.972-20.04,20.04-20.04l0,0c11.068,0,20.04,8.972,20.04,20.04v16.032C360.209,271.077,351.236,280.049,340.168,280.049z
		"/>
</g>
<path style="fill:#9C6846;" d="M360.209,243.977c0-12.379-11.222-22.135-24.048-19.651v15.643c0,13.282,10.767,24.048,24.048,24.048
	l0,0V243.977z"/>
<path style="fill:#7D5046;" d="M171.831,280.049L171.831,280.049c-11.068,0-20.04-8.972-20.04-20.04v-16.032
	c0-11.068,8.972-20.04,20.04-20.04l0,0c11.068,0,20.04,8.972,20.04,20.04v16.032C191.871,271.077,182.899,280.049,171.831,280.049z"
	/>
<path style="fill:#9C6846;" d="M191.871,243.977c0-12.379-11.222-22.135-24.048-19.651v15.643c0,13.282,10.767,24.048,24.048,24.048
	l0,0V243.977z"/>
<path d="M171.821,287.524c15.187,0,27.542-12.355,27.542-27.543v-12.025c0-4.142-3.358-7.5-7.5-7.5c-4.142,0-7.5,3.358-7.5,7.5
	v12.025c0,6.916-5.626,12.543-12.542,12.543s-12.542-5.627-12.542-12.543v-16.034c0-6.916,5.626-12.542,12.542-12.542
	c4.142,0,7.5-3.358,7.5-7.5c0-4.143-3.358-7.5-7.5-7.5c-15.187,0-27.542,12.355-27.542,27.542v16.034
	C144.278,275.168,156.634,287.524,171.821,287.524z"/>
<path d="M367.721,259.981v-12.025c0-4.142-3.358-7.5-7.5-7.5c-4.142,0-7.5,3.358-7.5,7.5v12.025c0,6.916-5.626,12.543-12.542,12.543
	c-6.916,0-12.543-5.627-12.543-12.543v-16.034c0-6.916,5.627-12.542,12.543-12.542c4.142,0,7.5-3.358,7.5-7.5
	c0-4.143-3.358-7.5-7.5-7.5c-15.187,0-27.543,12.355-27.543,27.542v16.034c0,15.188,12.356,27.543,27.543,27.543
	S367.721,275.168,367.721,259.981z"/>
<path d="M15.108,248.714c1.833-61.604,26.857-119.542,70.459-163.145c43.603-43.603,101.542-68.626,163.145-70.459
	c61.335-1.826,120.401,19.43,166.327,59.852c3.109,2.736,7.848,2.435,10.585-0.675c2.737-3.11,2.435-7.849-0.675-10.585
	C376.16,20.759,313.416-1.821,248.267,0.116c-65.44,1.947-126.988,28.528-173.305,74.846C28.644,121.28,2.063,182.827,0.115,248.268
	C-1.824,313.413,20.757,376.161,63.7,424.951c1.482,1.685,3.552,2.545,5.633,2.545c1.76,0,3.527-0.616,4.952-1.87
	c3.109-2.737,3.412-7.476,0.675-10.585C34.538,369.115,13.283,310.045,15.108,248.714z"/>
<path d="M448.3,87.052c-2.736-3.109-7.476-3.412-10.585-0.675c-3.109,2.736-3.412,7.476-0.675,10.585
	c40.421,45.925,61.677,104.994,59.852,166.326c-1.833,61.604-26.856,119.542-70.459,163.145s-101.541,68.626-163.145,70.459
	c-61.329,1.822-120.401-19.43-166.327-59.852c-3.108-2.736-7.848-2.435-10.585,0.675c-2.737,3.109-2.435,7.849,0.675,10.585
	c46.854,41.239,106.579,63.7,168.941,63.7c2.577,0,5.158-0.038,7.742-0.115c65.441-1.948,126.988-28.529,173.305-74.846
	c46.318-46.317,72.899-107.865,74.847-173.305C513.823,198.588,491.242,135.84,448.3,87.052z"/>
<path d="M207.87,207.355c3.14,0,6.066-1.987,7.114-5.13c1.31-3.93-0.814-8.177-4.744-9.487l-72.154-24.051
	c-3.928-1.31-8.176,0.814-9.487,4.744c-1.31,3.929,0.814,8.177,4.744,9.487l72.154,24.051
	C206.284,207.231,207.084,207.355,207.87,207.355z"/>
<path d="M383.341,173.43c-1.311-3.93-5.557-6.053-9.487-4.744l-72.153,24.051c-3.93,1.311-6.053,5.558-4.744,9.487
	c1.048,3.143,3.974,5.13,7.114,5.13c0.786,0,1.586-0.124,2.373-0.387l72.153-24.051C382.527,181.607,384.651,177.359,383.341,173.43
	z"/>
<path d="M193.531,383.467c19.877-4.413,40.866-6.651,62.383-6.651c21.516,0,42.505,2.238,62.382,6.651
	c0.8,0.177,1.602,0.264,2.394,0.264c2.986,0,5.839-1.234,7.941-3.507c2.662-2.879,3.6-7.007,2.448-10.772
	c-10.397-34-40.603-56.844-75.165-56.844s-64.769,22.844-75.165,56.843c-1.152,3.766-0.214,7.894,2.447,10.773
	C185.856,383.101,189.72,384.313,193.531,383.467z M255.914,327.607c25.672,0,48.4,15.702,58.47,39.723
	c-18.792-3.662-38.424-5.515-58.47-5.515s-39.679,1.854-58.47,5.515C207.513,343.311,230.242,327.607,255.914,327.607z"/>
<g>
</g>
<g>
</g>
<g>
</g>
<g>
</g>
<g>
</g>
<g>
</g>
<g>
</g>
<g>
</g>
<g>
</g>
<g>
</g>
<g>
</g>
<g>
</g>
<g>
</g>
<g>
</g>
<g>
</g>
</svg>
